<svg width="16" height="13" viewBox="0 0 16 13" fill="none" xmlns="http://www.w3.org/2000/svg">
<path d="M4.25129 2.22265C4.09812 2.45241 4.1602 2.76285 4.38997 2.91603C4.61973 3.0692 4.93017 3.00711 5.08334 2.77735L4.25129 2.22265ZM5.60483 1.09373L6.02085 1.37108V1.37108L5.60483 1.09373ZM10.3965 1.09373L10.8125 0.816383L10.3965 1.09373ZM10.918 2.77735C11.0711 3.00711 11.3816 3.0692 11.6113 2.91603C11.8411 2.76285 11.9032 2.45241 11.75 2.22265L10.918 2.77735ZM9.50065 7.5C9.50065 8.32843 8.82908 9 8.00065 9V10C9.38136 10 10.5007 8.88071 10.5007 7.5H9.50065ZM8.00065 9C7.17222 9 6.50065 8.32843 6.50065 7.5H5.50065C5.50065 8.88071 6.61994 10 8.00065 10V9ZM6.50065 7.5C6.50065 6.67157 7.17222 6 8.00065 6V5C6.61994 5 5.50065 6.11929 5.50065 7.5H6.50065ZM8.00065 6C8.82908 6 9.50065 6.67157 9.50065 7.5H10.5007C10.5007 6.11929 9.38136 5 8.00065 5V6ZM5.08334 2.77735L6.02085 1.37108L5.1888 0.816383L4.25129 2.22265L5.08334 2.77735ZM6.71423 1H9.28707V0H6.71423V1ZM9.98045 1.37108L10.918 2.77735L11.75 2.22265L10.8125 0.816383L9.98045 1.37108ZM9.28707 1C9.5657 1 9.82589 1.13925 9.98045 1.37108L10.8125 0.816383C10.4725 0.306352 9.90005 0 9.28707 0V1ZM6.02085 1.37108C6.17541 1.13925 6.4356 1 6.71423 1V0C6.10125 0 5.52882 0.306352 5.1888 0.816383L6.02085 1.37108ZM4.00065 3H12.0007V2H4.00065V3ZM14.1673 5.16667V9.83333H15.1673V5.16667H14.1673ZM12.0007 12H4.00065V13H12.0007V12ZM1.83398 9.83333V5.16667H0.833984V9.83333H1.83398ZM4.00065 12C2.80403 12 1.83398 11.03 1.83398 9.83333H0.833984C0.833984 11.5822 2.25175 13 4.00065 13V12ZM14.1673 9.83333C14.1673 11.03 13.1973 12 12.0007 12V13C13.7496 13 15.1673 11.5822 15.1673 9.83333H14.1673ZM12.0007 3C13.1973 3 14.1673 3.97005 14.1673 5.16667H15.1673C15.1673 3.41777 13.7496 2 12.0007 2V3ZM4.00065 2C2.25175 2 0.833984 3.41777 0.833984 5.16667H1.83398C1.83398 3.97005 2.80403 3 4.00065 3V2Z" fill="#FEFEFE"/>
</svg>
