<svg width="33" height="32" viewBox="0 0 33 32" fill="none" xmlns="http://www.w3.org/2000/svg">
<path d="M27.4974 16V24C27.4974 26.9455 25.1096 29.3333 22.1641 29.3333H11.4974C8.55188 29.3333 6.16406 26.9455 6.16406 24V16" stroke="#141718" stroke-width="2.5" stroke-linejoin="round"/>
<path d="M23.1906 2.66663H10.474C8.05084 2.66663 5.87183 4.3263 4.9719 6.85736L3.96126 9.69979C3.65533 10.5602 3.44386 11.4809 3.66699 12.3665C4.19545 14.4636 5.90996 16 7.94342 16C10.398 16 12.3879 13.7614 12.3879 11C12.3879 13.7614 14.3777 16 16.8323 16C19.2869 16 21.2768 13.7614 21.2768 11C21.2768 13.7614 23.2666 16 25.7212 16C27.7547 16 29.4692 14.4636 29.9976 12.3665C30.2208 11.4809 30.0093 10.5602 29.7034 9.69979L28.6927 6.85735C27.7928 4.3263 25.6138 2.66663 23.1906 2.66663Z" stroke="#141718" stroke-width="2.5" stroke-linejoin="round"/>
<path d="M12.832 25.3334C12.832 23.1242 14.6229 21.3334 16.832 21.3334C19.0412 21.3334 20.832 23.1242 20.832 25.3334V29.3334H12.832V25.3334Z" stroke="#141718" stroke-width="2.5" stroke-linejoin="round"/>
</svg>
