<svg width="64" height="64" viewBox="0 0 64 64" fill="none" xmlns="http://www.w3.org/2000/svg">
<path fill-rule="evenodd" clip-rule="evenodd" d="M32 58.6667C41 58.6667 56 42.1283 56 29.0371C56 15.9459 45.2548 5.33337 32 5.33337C18.7452 5.33337 8 15.9459 8 29.0371C8 42.1283 23 58.6667 32 58.6667ZM32 37.3334C36.4183 37.3334 40 33.7517 40 29.3334C40 24.9151 36.4183 21.3334 32 21.3334C27.5817 21.3334 24 24.9151 24 29.3334C24 33.7517 27.5817 37.3334 32 37.3334Z" fill="#141718"/>
<circle cx="32" cy="29.6514" r="20" fill="#141718"/>
<path d="M40 29.6514V35.6514C40 37.8605 38.2091 39.6514 36 39.6514H28C25.7909 39.6514 24 37.8605 24 35.6514V29.6514" stroke="#FEFEFE" stroke-width="1.5" stroke-linejoin="round"/>
<path d="M36.767 19.6514H27.2295C25.4122 19.6514 23.7779 20.8961 23.1029 22.7944L22.345 24.9262C22.1155 25.5716 21.9569 26.2621 22.1243 26.9262C22.5206 28.4991 23.8065 29.6514 25.3316 29.6514C27.1725 29.6514 28.6649 27.9724 28.6649 25.9014C28.6649 27.9724 30.1573 29.6514 31.9983 29.6514C33.8392 29.6514 35.3316 27.9724 35.3316 25.9014C35.3316 27.9724 36.824 29.6514 38.6649 29.6514C40.19 29.6514 41.4759 28.4991 41.8722 26.9262C42.0396 26.2621 41.881 25.5716 41.6515 24.9262L40.8936 22.7944C40.2186 20.8961 38.5844 19.6514 36.767 19.6514Z" stroke="#FEFEFE" stroke-width="1.5" stroke-linejoin="round"/>
<path d="M29 36.6514C29 34.9945 30.3431 33.6514 32 33.6514C33.6569 33.6514 35 34.9945 35 36.6514V39.6514H29V36.6514Z" stroke="#FEFEFE" stroke-width="1.5" stroke-linejoin="round"/>
</svg>
